# xmcd
#
# Track frame offsets:
#	150
#	17066
#	45206
#	67722
#	91731
#	121274
#	139423
#	161891
#	184895
#	205060
#	220640
#	240238
#
# Disc length: 3442 seconds
# Revision: 0
# Processed by: cddbd v1.5.2PL0 Copyright (c) Steve Scherf et al.
# Submitted via: dBpowerAMP V12.0
#
DISCID=950d700c
DTITLE=Anna Beljin - When it Rains
DYEAR=2010
DGENRE=Country
TTITLE0=Solul of a Man
TTITLE1=Not Dark Yet
TTITLE2=When it Rains
TTITLE3=The Messenger
TTITLE4=Get Behind the Mule
TTITLE5=Someday Somebody
TTITLE6=John the Revelator
TTITLE7=Me, Myself and I
TTITLE8=Don't Feel Your Touch
TTITLE9=Shelter Me
TTITLE10=Take it Back
TTITLE11=The Reason
EXTD=
EXTT0=
EXTT1=
EXTT2=
EXTT3=
EXTT4=
EXTT5=
EXTT6=
EXTT7=
EXTT8=
EXTT9=
EXTT10=
EXTT11=
PLAYORDER=
